<svg width="39" height="39" viewBox="0 0 39 39" fill="none" xmlns="http://www.w3.org/2000/svg">
<path id="Vector" d="M17.757 0.760557L24.0607 7.06431C24.2656 5.89114 24.8688 4.82453 25.7686 4.0444C27.7059 2.35956 30.6143 2.36981 32.5631 3.98674L32.5734 3.99443L32.5823 4.00212C32.6976 4.10334 32.8091 4.20712 32.9154 4.31474V4.28656L33.0179 4.42365C33.2537 4.6799 33.46 4.95409 33.6355 5.24237L34.362 6.20587C34.4004 6.25456 34.4376 6.30324 34.4734 6.35321L34.5644 6.47365L34.5567 6.47109C35.1013 7.27315 35.3665 8.18796 35.3485 9.12328C35.3229 10.4507 34.7284 11.7229 33.7406 12.7133C33.0189 13.4486 32.0523 13.8932 31.0243 13.9626L36.3979 19.3477C36.4581 19.4066 36.5132 19.4694 36.567 19.5334L36.5683 19.5181L37.5689 20.7532C37.9876 21.2428 38.2061 21.8724 38.1807 22.5161C38.1553 23.1599 37.8878 23.7703 37.4319 24.2254L33.4638 28.1998C33.1795 28.4853 32.8408 28.7108 32.4677 28.8629C32.0945 29.0149 31.6947 29.0905 31.2918 29.085C30.8889 29.0795 30.4913 28.9931 30.1224 28.8309C29.7536 28.6687 29.4211 28.434 29.1447 28.1409L29.146 28.1588L27.9698 26.9544H28.0006C27.7224 26.6552 27.5074 26.303 27.3683 25.9189C27.2291 25.5348 27.1688 25.1266 27.1908 24.7187V24.7058L27.1934 24.693C27.2331 24.1307 27.0863 23.5709 26.7757 23.1004C25.8019 22.848 24.5924 23.153 23.8083 24.0588C23.1485 24.8186 22.9384 25.9076 23.1472 26.7802C23.6136 27.08 24.1543 27.2158 24.6898 27.194C25.4187 27.1587 26.136 27.387 26.7104 27.8372V27.8321L26.7462 27.8654C26.8282 27.932 26.9064 28.0038 26.982 28.0781L27.0076 28.1037L27.0973 28.1972L28.2824 29.3171L28.2581 29.3145C28.788 29.8864 29.0758 30.6413 29.061 31.4209C29.0462 32.2004 28.7299 32.9439 28.1787 33.4952L24.2491 37.4325C23.3548 38.3294 21.971 38.4255 20.9716 37.7221L20.9832 37.7502L19.7314 36.6996C19.6026 36.6107 19.4821 36.5103 19.3714 36.3998L19.3662 36.3947L19.3303 36.3639H19.3355L14.0029 31.0211C13.935 31.95 13.6198 32.9238 12.7857 33.7592C11.7863 34.7598 10.5025 35.3492 9.17004 35.371C8.22166 35.3874 7.29164 35.1085 6.50888 34.5727L6.51144 34.583L5.23532 33.6259C4.98244 33.4678 4.74368 33.2882 4.52166 33.0891L4.28719 32.9135H4.33332C3.38997 31.981 2.83692 30.7244 2.78647 29.399C2.73602 28.0735 3.19196 26.7785 4.06169 25.777H4.06426C4.83801 24.8914 5.89061 24.2962 7.04829 24.0896L0.756069 17.7858C0.516384 17.5464 0.326239 17.2621 0.196507 16.9491C0.0667749 16.6362 0 16.3007 0 15.9619C0 15.6232 0.0667749 15.2877 0.196507 14.9748C0.326239 14.6618 0.516384 14.3775 0.756069 14.1381L4.76894 10.1162C5.05009 9.83383 5.38414 9.60959 5.75199 9.45634C6.11985 9.3031 6.5143 9.22385 6.9128 9.22314C7.3113 9.22242 7.70604 9.30025 8.07444 9.45218C8.44284 9.60411 8.77769 9.82715 9.05985 10.1086C9.23026 10.2751 9.38016 10.4622 9.50444 10.6621L9.50701 10.6569L10.4218 12.2418L10.418 12.2406C10.564 12.4699 10.664 12.7236 10.7114 13.0067C10.7665 13.3347 10.737 13.6794 10.7204 13.8652L10.7165 13.9152C10.7075 14.0907 10.7421 14.3226 10.8293 14.5929C11.9183 15.55 13.5929 15.4603 14.5705 14.3316C14.982 13.8505 15.2082 13.2382 15.2082 12.6051C15.2082 11.972 14.982 11.3597 14.5705 10.8786L14.5692 10.8773C14.5258 10.827 14.4805 10.7783 14.4334 10.7312C14.2278 10.6613 14.0144 10.617 13.7979 10.5993L13.6429 10.6954L13.6378 10.6992C13.3998 10.8501 13.1317 10.9472 12.8523 10.9837C12.642 11.0072 12.429 10.9877 12.2264 10.9265C12.0238 10.8653 11.8357 10.7636 11.6736 10.6275L11.6018 10.5788L11.5122 10.4891C11.4494 10.425 11.3904 10.361 11.3328 10.2943V10.2995L10.2155 9.14762L10.2104 9.14506L10.1207 9.05537C9.83838 8.77304 9.61442 8.43786 9.46161 8.06898C9.30881 7.70009 9.23016 7.30471 9.23016 6.90543C9.23016 6.50615 9.30881 6.11078 9.46161 5.74189C9.61442 5.373 9.83838 5.03782 10.1207 4.75549L14.1093 0.759276C14.3482 0.51867 14.6323 0.327711 14.9453 0.197399C15.2583 0.067088 15.5941 0 15.9331 0C16.2722 0 16.6079 0.067088 16.9209 0.197399C17.2339 0.327711 17.5181 0.51867 17.757 0.759276V0.760557ZM15.9286 2.56712C15.9286 2.56712 15.9261 2.56712 15.9222 2.57096L11.9337 6.56718C11.854 6.64622 11.8047 6.75077 11.7944 6.86251C11.7841 6.97426 11.8135 7.08606 11.8773 7.17834L11.8824 7.18218L11.9721 7.27187C12.0184 7.3175 12.0735 7.35311 12.1342 7.37648C12.1948 7.39985 12.2596 7.41047 12.3245 7.40768H12.3334C13.1195 7.37096 13.9036 7.51335 14.6265 7.8241C15.3494 8.13484 15.9923 8.60581 16.5065 9.20143C17.3219 10.1485 17.7703 11.3567 17.7703 12.6064C17.7703 13.856 17.3219 15.0642 16.5065 16.0113C16.0401 16.552 15.4673 16.9909 14.8237 17.3005C14.1802 17.6101 13.4798 17.7838 12.7662 17.8107C12.0526 17.8377 11.3411 17.7173 10.6761 17.457C10.0111 17.1968 9.4068 16.8024 8.90098 16.2983L8.89201 16.2893L8.88432 16.2803C8.37179 15.7551 7.97435 15.1288 7.71735 14.4414C7.46035 13.754 7.34943 13.0206 7.39166 12.288V12.2649C7.39526 12.2059 7.38626 12.1469 7.36528 12.0916C7.34429 12.0364 7.31179 11.9863 7.26994 11.9446L7.26226 11.9369L7.25329 11.9279C7.20953 11.8835 7.15738 11.8482 7.09986 11.8241C7.04234 11.8 6.9806 11.7876 6.91824 11.7876C6.85588 11.7876 6.79414 11.8 6.73662 11.8241C6.6791 11.8482 6.62695 11.8835 6.58319 11.9279L2.56904 15.9498C2.56712 15.9517 2.5654 15.9539 2.56391 15.9562L2.56135 15.9587V15.9639C2.56116 15.9651 2.56116 15.9664 2.56135 15.9677L2.56391 15.9703L2.56904 15.978L10.049 23.4707C10.7767 24.201 10.7767 25.367 10.049 26.0973C9.83717 26.3108 9.57607 26.4689 9.28871 26.5576C9.00136 26.6463 8.69658 26.6629 8.40129 26.6059C7.95931 26.5324 7.50588 26.5729 7.08393 26.7236C6.66197 26.8743 6.28544 27.1301 5.98998 27.4669C5.57598 27.9476 5.34752 28.5606 5.34588 29.195C5.34423 29.8294 5.56951 30.4435 5.98101 30.9263V30.9276C6.21725 31.2029 6.50798 31.4263 6.83486 31.5837C7.16174 31.7411 7.51769 31.8291 7.88026 31.8421C8.24283 31.8551 8.60416 31.7929 8.94147 31.6593C9.27879 31.5257 9.58477 31.3237 9.84013 31.066C10.1336 30.7718 10.3535 30.4125 10.4817 30.0173C10.61 29.6221 10.643 29.2022 10.5781 28.7917L10.5756 28.7738L10.573 28.7572C10.532 28.47 10.5585 28.1773 10.6504 27.9022C10.7422 27.6271 10.8969 27.3772 11.1022 27.1722L11.1278 27.1466C11.8581 26.4163 13.0266 26.4163 13.7569 27.1466L21.1843 34.5894L21.1882 34.592L21.1907 34.5945H21.1933L21.1959 34.5958H21.1984L21.1997 34.5945L21.2061 34.5894L25.1946 30.5932C25.2395 30.5487 25.2751 30.4959 25.2994 30.4376C25.3237 30.3793 25.3362 30.3168 25.3362 30.2537C25.3362 30.1905 25.3237 30.128 25.2994 30.0697C25.2751 30.0114 25.2395 29.9586 25.1946 29.9141L25.169 29.8885C25.1226 29.8428 25.0672 29.8071 25.0063 29.7837C24.9455 29.7604 24.8805 29.7498 24.8154 29.7527H24.8077C24.0217 29.7893 23.2376 29.6469 22.5147 29.3361C21.7918 29.0254 21.1489 28.5545 20.6347 27.9589C19.8193 27.0119 19.3708 25.8037 19.3708 24.554C19.3708 23.3043 19.8193 22.0961 20.6347 21.1491C21.1013 20.6086 21.6742 20.17 22.3177 19.8606C22.9613 19.5512 23.6617 19.3777 24.3752 19.3509C25.0888 19.3241 25.8002 19.4446 26.4652 19.7048C27.1301 19.965 27.7343 20.3594 28.2402 20.8634L28.244 20.8659C28.766 21.3849 29.1706 22.0099 29.4303 22.6986C29.69 23.3874 29.7989 24.1239 29.7495 24.8583C29.7459 24.9251 29.7564 24.9918 29.7802 25.0543C29.804 25.1167 29.8407 25.1735 29.8878 25.2209C29.9316 25.2653 29.9838 25.3006 30.0413 25.3247C30.0988 25.3488 30.1605 25.3612 30.2229 25.3612C30.2853 25.3612 30.347 25.3488 30.4045 25.3247C30.462 25.3006 30.5142 25.2653 30.5579 25.2209L34.5849 21.1862C34.5868 21.1843 34.5886 21.1821 34.59 21.1798L34.5913 21.1773V21.1747L34.5926 21.1722C34.5928 21.1709 34.5928 21.1696 34.5926 21.1683L34.59 21.1657L34.5849 21.1593L27.1178 13.6781C26.9446 13.5061 26.8072 13.3014 26.7134 13.076C26.6196 12.8507 26.5714 12.609 26.5714 12.3648C26.5714 12.1207 26.6196 11.879 26.7134 11.6536C26.8072 11.4282 26.9446 11.2236 27.1178 11.0516C27.3296 10.8381 27.5907 10.68 27.878 10.5913C28.1654 10.5026 28.4702 10.4859 28.7655 10.5429C29.1777 10.6121 29.6005 10.582 29.9987 10.455C30.3969 10.3279 30.7591 10.1077 31.0551 9.81259C31.3108 9.55606 31.5111 9.24971 31.6435 8.91255C31.7759 8.57539 31.8376 8.21461 31.8247 7.85262C31.8119 7.49062 31.7247 7.13513 31.5688 6.80821C31.4128 6.48129 31.1913 6.18992 30.918 5.95218C29.9122 5.12578 28.4157 5.13987 27.4509 5.97781C27.1121 6.27106 26.8538 6.64605 26.7007 7.06718C26.5475 7.4883 26.5045 7.94159 26.5758 8.38399L26.5784 8.40065L26.5809 8.41731C26.654 8.96184 26.5028 9.55121 26.0518 10.0022L26.0262 10.0278C25.2959 10.7582 24.1286 10.7582 23.3983 10.0278L15.9607 2.59018L15.944 2.57353C15.942 2.57124 15.9399 2.5691 15.9376 2.56712H15.935L15.9325 2.56456H15.9312L15.9286 2.56584V2.56712Z" fill="#5221E6"/>
</svg>
